<svg version="1.2" xmlns="http://www.w3.org/2000/svg" viewBox="0 0 720 720" width="720" height="720">
	<style>
		.s0 { fill: #2e3278 } 
		.s1 { fill: #fcdc3a } 
	</style>
	<g id="Pasta 1 copy">
		<path id="Camada 1 copy" class="s0" d="m62.18 143h385.23c30.58 0 55.37 29.34 55.37 65.54v304.46c0 36.2-24.79 65.54-55.37 65.54h-385.23c-30.58 0-55.37-29.34-55.37-65.54v-304.46c0-36.2 24.79-65.54 55.37-65.54zm-62.29 131.08"/>
		<path id="cupom" fill-rule="evenodd" class="s1" d="m112.15 142.33h527.16c41.85 0 75.78 29.41 75.78 65.69v57.88q-4.93-0.39-9.99-0.4c-59.71 0-107.98 41.85-107.98 93.62 0 51.76 48.27 93.61 107.98 93.61q5.06 0 9.99-0.4v60.86c0 36.28-33.93 65.69-75.78 65.69h-527.16c-41.85 0-75.78-29.41-75.78-65.69v-305.17c0-36.28 33.93-65.69 75.78-65.69z"/>
		<path id="%" class="s0" aria-label="%"  d="m341.5 493h-13.4q-8.3 0-8.3-8 0-2.4 1.6-4.5l198.2-261.2q2.8-3.6 5.4-5.6 2.8-2 8.1-2h13.4q8.3 0 8.3 8 0 2.5-1.6 4.5l-198.2 261.2q-2.8 3.6-5.6 5.6-2.2 2-7.9 2zm170.8 2.3q-26.5 0-41.5-14.8-15-15-16.4-39.1-0.5-10.5-0.5-17.5 0.1-7.6 0.5-18.9 1.3-24.2 15.6-39 14.3-15.3 42.3-15.3 28.1 0 42 15.3 14.7 14.8 15.9 39 0.8 11.3 0.6 18.9 0.2 7-0.6 17.5-1.2 24.1-16.7 39.1-14.7 14.8-41.2 14.8zm0-26.4q10.5 0 16.3-4 6.4-4.8 8.9-11.3 3.2-6.9 3.5-13.7 0.8-10.7 0.5-16.8 0.3-6.7-0.5-16.6-0.4-10.7-7.2-20-6.1-9.3-21.5-9.3-15.3 0-21.9 9.3-6 9.3-6.7 20-0.4 9.9-0.5 16.6 0.1 6.1 0.5 16.8 0.7 6.8 3.1 13.7 2.9 6.5 8.9 11.3 6.2 4 16.6 4zm-150.3-116.2q-26.5 0-41.9-14-14.7-14.2-16.1-38.3-0.4-10.4-0.4-17.6 0-7.5 0.4-18.8 1.3-24.1 15.3-39 14.6-15.3 42.7-15.3 28.1 0 42 15.3 14.6 14.9 15.9 39 0.8 11.3 0.6 18.8 0.2 7.2-0.6 17.6-1.3 24.1-16.7 38.3-14.7 14-41.2 14zm0-24.8q10.4 0 16.3-4.1 6.3-4.6 8.9-11.2 3.1-6.9 3.4-13.7 0.8-10.6 0.6-16.9 0.2-6.5-0.6-16.4-0.4-10.8-7-19.7-6.3-9.7-21.6-9.7-15.4 0-21.8 9.7-6.2 8.9-6.9 19.7-0.4 9.9-0.8 16.4 0.4 6.3 0.8 16.9 0.7 6.8 3.2 13.7 2.8 6.6 8.9 11.2 6.2 4.1 16.6 4.1zm-31.1 165.1h-13.3q-8.4 0-8.4-8 0-2.4 1.6-4.5l198.2-261.2q2.8-3.6 5.4-5.6 2.8-2 8.1-2h13.4q8.3 0 8.3 8 0 2.5-1.6 4.5l-198.2 261.2q-2.8 3.6-5.6 5.6-2.2 2-7.9 2zm170.8 2.3q-26.5 0-41.5-14.8-15-15-16.4-39.1-0.5-10.5-0.5-17.5 0.1-7.6 0.5-18.9 1.3-24.2 15.6-39 14.3-15.3 42.3-15.3 28.1 0 42 15.3 14.7 14.8 15.9 39 0.8 11.3 0.6 18.9 0.2 7-0.6 17.5-1.2 24.1-16.7 39.1-14.7 14.8-41.2 14.8zm0-26.4q10.5 0 16.3-4 6.4-4.8 8.9-11.3 3.2-6.9 3.5-13.7 0.8-10.7 0.5-16.8 0.3-6.7-0.5-16.6-0.4-10.7-7.1-20-6.2-9.3-21.6-9.3-15.3 0-21.8 9.3-6.1 9.3-6.8 20-0.4 9.9-0.5 16.6 0.1 6.1 0.5 16.8 0.7 6.8 3.1 13.7 2.9 6.5 8.9 11.3 6.2 4 16.6 4zm-150.3-116.2q-26.5 0-41.9-14-14.7-14.2-16.1-38.3-0.4-10.4-0.4-17.6 0-7.5 0.4-18.8 1.3-24.1 15.3-39 14.6-15.3 42.7-15.3 28.1 0 42.1 15.3 14.5 14.9 15.8 39 0.8 11.3 0.6 18.8 0.2 7.2-0.6 17.6-1.3 24.1-16.7 38.3-14.7 14-41.2 14zm0-24.8q10.4 0 16.3-4.1 6.3-4.6 8.9-11.2 3.1-6.9 3.4-13.7 0.8-10.6 0.6-16.9 0.2-6.5-0.6-16.4-0.4-10.8-7-19.7-6.3-9.7-21.6-9.7-15.4 0-21.8 9.7-6.2 8.9-6.9 19.7-0.4 9.9-0.8 16.4 0.4 6.3 0.8 16.9 0.7 6.8 3.2 13.7 2.8 6.6 8.9 11.2 6.2 4.1 16.6 4.1z"/>
		<g id="LINES">
			<path id="-----" class="s0" aria-label="-----"  d="m201.8 516.6v57.4q0 2-2.5 3.2-2.9 1.2-7.3 1.2h-16.2q-4.3 0-6.8-1.2-2.9-1.2-2.9-3.2v-57.4q0-2 2.9-3 2.5-1.4 6.8-1.4h16.2q4.4 0 7.3 1.4 2.5 1 2.5 3zm0-92.6v57.5q0 1.9-2.5 3.2-2.9 1.2-7.3 1.2h-16.2q-4.3 0-6.8-1.2-2.9-1.3-2.9-3.2v-57.5q0-2 2.9-3 2.5-1.4 6.8-1.4h16.2q4.4 0 7.3 1.4 2.5 1 2.5 3zm0-92.6v57.5q0 2-2.5 3.2-2.9 1.2-7.3 1.2h-16.2q-4.3 0-6.8-1.2-2.9-1.2-2.9-3.2v-57.5q0-1.9 2.9-3 2.5-1.4 6.8-1.4h16.2q4.4 0 7.3 1.4 2.5 1.1 2.5 3zm0-92.5v57.4q0 2-2.5 3.2-2.9 1.2-7.3 1.2h-16.2q-4.3 0-6.8-1.2-2.9-1.2-2.9-3.2v-57.4q0-2 2.9-3 2.5-1.4 6.8-1.4h16.2q4.4 0 7.3 1.4 2.5 1 2.5 3zm0-92.6v57.5q0 1.9-2.5 3.2-2.9 1.2-7.3 1.2h-16.2q-4.3 0-6.8-1.2-2.9-1.3-2.9-3.2v-57.5q0-2 2.9-3 2.5-1.4 6.8-1.4h16.2q4.4 0 7.3 1.4 2.5 1 2.5 3z"/>
		</g>
	</g>
</svg>